<svg width="40" height="40" viewBox="0 0 40 40" fill="none" xmlns="http://www.w3.org/2000/svg">
<rect width="40" height="40" rx="20" fill="#FFA451"/>
<path d="M24.566 29.999H24.594C25.122 29.999 25.621 29.791 25.999 29.413L28.711 26.701C28.8039 26.6082 28.8777 26.498 28.928 26.3767C28.9783 26.2554 29.0042 26.1253 29.0042 25.994C29.0042 25.8627 28.9783 25.7326 28.928 25.6113C28.8777 25.49 28.8039 25.3798 28.711 25.287L24.711 21.287C24.6182 21.1941 24.508 21.1203 24.3867 21.07C24.2654 21.0197 24.1353 20.9938 24.004 20.9938C23.8726 20.9938 23.7426 21.0197 23.6213 21.07C23.5 21.1203 23.3898 21.1941 23.297 21.287L21.703 22.881C20.964 22.661 19.585 22.161 18.711 21.287C17.837 20.413 17.337 19.034 17.117 18.295L18.711 16.701C18.8039 16.6082 18.8777 16.498 18.928 16.3767C18.9783 16.2554 19.0042 16.1253 19.0042 15.994C19.0042 15.8627 18.9783 15.7326 18.928 15.6113C18.8777 15.49 18.8039 15.3798 18.711 15.287L14.711 11.287C14.5198 11.1066 14.2669 11.006 14.004 11.006C13.7411 11.006 13.4881 11.1066 13.297 11.287L10.586 13.999C10.206 14.379 9.99197 14.901 9.99997 15.434C10.023 16.858 10.4 21.804 14.298 25.702C18.196 29.6 23.142 29.976 24.566 29.999ZM14.005 13.408L16.591 15.994L15.298 17.287C15.1803 17.4043 15.0939 17.5493 15.0465 17.7085C14.9992 17.8678 14.9925 18.0364 15.027 18.199C15.051 18.314 15.638 21.041 17.298 22.701C18.958 24.361 21.685 24.948 21.8 24.972C21.9625 25.0067 22.1312 25 22.2905 24.9527C22.4498 24.9054 22.5947 24.8188 22.712 24.701L24.005 23.408L26.591 25.994L24.585 27.999C23.337 27.978 19.067 27.643 15.712 24.287C12.346 20.921 12.02 16.636 12 15.413L14.005 13.408ZM27.999 18.999H29.999C29.999 13.869 26.126 10 20.989 10V12C25.051 12 27.999 14.943 27.999 18.999Z" fill="white"/>
<path d="M20.999 16C23.102 16 23.999 16.897 23.999 19H25.999C25.999 15.775 24.224 14 20.999 14V16Z" fill="white"/>
</svg>
