<svg width="16" height="15" viewBox="0 0 16 15" fill="none" xmlns="http://www.w3.org/2000/svg">
<path d="M7.7647 2.47179L8.18403 3.11951L8.60391 2.47215C9.84153 0.564017 11.5527 0.200706 12.9298 0.729705C14.3386 1.27089 15.5 2.78396 15.5 4.85101C15.5 5.55052 15.1261 6.42139 14.4617 7.39245C13.8075 8.34856 12.919 9.33429 11.995 10.2498C11.0731 11.1632 10.1279 11.9949 9.36746 12.6442C9.09431 12.8774 8.84669 13.0856 8.63162 13.2665C8.54679 13.3379 8.46704 13.4049 8.39277 13.4676C8.31785 13.5308 8.2467 13.5911 8.18093 13.6473C8.11065 13.5891 8.03452 13.5268 7.95458 13.4618C7.84695 13.3743 7.72952 13.2794 7.60249 13.1768C7.40395 13.0164 7.18197 12.8371 6.9374 12.6372C6.14209 11.9874 5.15067 11.1553 4.18248 10.2414C3.21195 9.32531 2.27786 8.33915 1.58984 7.3828C0.889999 6.41002 0.5 5.54276 0.5 4.85101C0.5 2.78604 1.73608 1.26535 3.24693 0.720345C4.73443 0.183756 6.53692 0.575298 7.7647 2.47179Z" stroke="#FFA451"/>
</svg>
